<svg xmlns="http://www.w3.org/2000/svg" xmlns:xlink="http://www.w3.org/1999/xlink" width="512" zoomAndPan="magnify" viewBox="0 0 384 383.999986" height="512" preserveAspectRatio="xMidYMid meet" version="1.0"><defs><g/><clipPath id="49ebfc4e18"><rect x="0" width="343" y="0" height="121"/></clipPath></defs><rect x="-38.4" width="460.8" fill="#ffffff" y="-38.399999" height="460.799983" fill-opacity="1"/><rect x="-38.4" width="460.8" fill="#ffffff" y="-38.399999" height="460.799983" fill-opacity="1"/><g transform="matrix(1, 0, 0, 1, 16, 131)"><g clip-path="url(#49ebfc4e18)"><g fill="#060606" fill-opacity="1"><g transform="translate(0.305224, 58.254754)"><g><path d="M 6.25 -41.65625 L 12.203125 -41.65625 L 12.203125 -5.171875 L 34.75 -5.171875 L 34.75 0 L 6.25 0 Z M 6.25 -41.65625 "/></g></g></g><g fill="#060606" fill-opacity="1"><g transform="translate(31.366249, 58.254754)"><g><path d="M 36.484375 -5.171875 L 36.484375 0 L 6.25 0 L 6.25 -41.65625 L 35.65625 -41.65625 L 35.65625 -36.484375 L 12.203125 -36.484375 L 12.203125 -23.6875 L 33.09375 -23.6875 L 33.09375 -18.625 L 12.203125 -18.625 L 12.203125 -5.171875 Z M 36.484375 -5.171875 "/></g></g></g><g fill="#060606" fill-opacity="1"><g transform="translate(66.949652, 58.254754)"><g><path d="M 6.25 -41.65625 L 23.8125 -41.65625 C 28.207031 -41.65625 32.113281 -40.78125 35.53125 -39.03125 C 38.945312 -37.289062 41.59375 -34.84375 43.46875 -31.6875 C 45.351562 -28.53125 46.296875 -24.910156 46.296875 -20.828125 C 46.296875 -16.742188 45.351562 -13.125 43.46875 -9.96875 C 41.59375 -6.8125 38.945312 -4.359375 35.53125 -2.609375 C 32.113281 -0.867188 28.207031 0 23.8125 0 L 6.25 0 Z M 23.453125 -5.171875 C 26.828125 -5.171875 29.789062 -5.828125 32.34375 -7.140625 C 34.90625 -8.453125 36.878906 -10.285156 38.265625 -12.640625 C 39.660156 -15.003906 40.359375 -17.734375 40.359375 -20.828125 C 40.359375 -23.921875 39.660156 -26.648438 38.265625 -29.015625 C 36.878906 -31.378906 34.90625 -33.210938 32.34375 -34.515625 C 29.789062 -35.828125 26.828125 -36.484375 23.453125 -36.484375 L 12.203125 -36.484375 L 12.203125 -5.171875 Z M 23.453125 -5.171875 "/></g></g></g><g fill="#060606" fill-opacity="1"><g transform="translate(111.815834, 58.254754)"><g><path d="M 35.109375 -21.0625 L 40.828125 -21.0625 L 40.828125 -4.828125 C 38.765625 -3.117188 36.363281 -1.804688 33.625 -0.890625 C 30.882812 0.015625 28.03125 0.46875 25.0625 0.46875 C 20.851562 0.46875 17.0625 -0.453125 13.6875 -2.296875 C 10.3125 -4.140625 7.660156 -6.675781 5.734375 -9.90625 C 3.816406 -13.144531 2.859375 -16.785156 2.859375 -20.828125 C 2.859375 -24.878906 3.816406 -28.53125 5.734375 -31.78125 C 7.660156 -35.03125 10.320312 -37.566406 13.71875 -39.390625 C 17.113281 -41.222656 20.929688 -42.140625 25.171875 -42.140625 C 28.503906 -42.140625 31.53125 -41.59375 34.25 -40.5 C 36.96875 -39.40625 39.28125 -37.804688 41.1875 -35.703125 L 37.5 -32.015625 C 34.164062 -35.234375 30.132812 -36.84375 25.40625 -36.84375 C 22.238281 -36.84375 19.394531 -36.15625 16.875 -34.78125 C 14.351562 -33.414062 12.378906 -31.507812 10.953125 -29.0625 C 9.523438 -26.625 8.8125 -23.878906 8.8125 -20.828125 C 8.8125 -17.816406 9.523438 -15.085938 10.953125 -12.640625 C 12.378906 -10.203125 14.351562 -8.289062 16.875 -6.90625 C 19.394531 -5.519531 22.222656 -4.828125 25.359375 -4.828125 C 29.085938 -4.828125 32.335938 -5.71875 35.109375 -7.5 Z M 35.109375 -21.0625 "/></g></g></g><g fill="#060606" fill-opacity="1"><g transform="translate(153.46875, 58.254754)"><g><path d="M 36.484375 -5.171875 L 36.484375 0 L 6.25 0 L 6.25 -41.65625 L 35.65625 -41.65625 L 35.65625 -36.484375 L 12.203125 -36.484375 L 12.203125 -23.6875 L 33.09375 -23.6875 L 33.09375 -18.625 L 12.203125 -18.625 L 12.203125 -5.171875 Z M 36.484375 -5.171875 "/></g></g></g><g fill="#060606" fill-opacity="1"><g transform="translate(189.052154, 58.254754)"><g><path d="M 34.109375 0 L 25.109375 -12.796875 C 24.003906 -12.710938 23.132812 -12.671875 22.5 -12.671875 L 12.203125 -12.671875 L 12.203125 0 L 6.25 0 L 6.25 -41.65625 L 22.5 -41.65625 C 27.894531 -41.65625 32.140625 -40.363281 35.234375 -37.78125 C 38.328125 -35.207031 39.875 -31.660156 39.875 -27.140625 C 39.875 -23.921875 39.078125 -21.179688 37.484375 -18.921875 C 35.898438 -16.660156 33.640625 -15.015625 30.703125 -13.984375 L 40.59375 0 Z M 22.3125 -17.734375 C 26.082031 -17.734375 28.957031 -18.546875 30.9375 -20.171875 C 32.925781 -21.796875 33.921875 -24.117188 33.921875 -27.140625 C 33.921875 -30.148438 32.925781 -32.457031 30.9375 -34.0625 C 28.957031 -35.675781 26.082031 -36.484375 22.3125 -36.484375 L 12.203125 -36.484375 L 12.203125 -17.734375 Z M 22.3125 -17.734375 "/></g></g></g><g fill="#2181f2" fill-opacity="1"><g transform="translate(0.305224, 105.609984)"><g><path d="M 4.9375 -41.65625 L 14.578125 -41.65625 L 14.578125 -7.859375 L 35.46875 -7.859375 L 35.46875 0 L 4.9375 0 Z M 4.9375 -41.65625 "/></g></g></g><g fill="#2181f2" fill-opacity="1"><g transform="translate(31.961302, 105.609984)"><g><path d="M 25.109375 0.71875 C 20.785156 0.71875 16.890625 -0.210938 13.421875 -2.078125 C 9.953125 -3.941406 7.234375 -6.507812 5.265625 -9.78125 C 3.304688 -13.0625 2.328125 -16.742188 2.328125 -20.828125 C 2.328125 -24.910156 3.304688 -28.585938 5.265625 -31.859375 C 7.234375 -35.140625 9.953125 -37.710938 13.421875 -39.578125 C 16.890625 -41.441406 20.785156 -42.375 25.109375 -42.375 C 29.441406 -42.375 33.332031 -41.441406 36.78125 -39.578125 C 40.226562 -37.710938 42.941406 -35.140625 44.921875 -31.859375 C 46.910156 -28.585938 47.90625 -24.910156 47.90625 -20.828125 C 47.90625 -16.742188 46.910156 -13.0625 44.921875 -9.78125 C 42.941406 -6.507812 40.226562 -3.941406 36.78125 -2.078125 C 33.332031 -0.210938 29.441406 0.71875 25.109375 0.71875 Z M 25.109375 -7.5 C 27.578125 -7.5 29.800781 -8.0625 31.78125 -9.1875 C 33.757812 -10.320312 35.316406 -11.898438 36.453125 -13.921875 C 37.585938 -15.953125 38.15625 -18.253906 38.15625 -20.828125 C 38.15625 -23.410156 37.585938 -25.710938 36.453125 -27.734375 C 35.316406 -29.753906 33.757812 -31.328125 31.78125 -32.453125 C 29.800781 -33.585938 27.578125 -34.15625 25.109375 -34.15625 C 22.648438 -34.15625 20.425781 -33.585938 18.4375 -32.453125 C 16.457031 -31.328125 14.898438 -29.753906 13.765625 -27.734375 C 12.640625 -25.710938 12.078125 -23.410156 12.078125 -20.828125 C 12.078125 -18.253906 12.640625 -15.953125 13.765625 -13.921875 C 14.898438 -11.898438 16.457031 -10.320312 18.4375 -9.1875 C 20.425781 -8.0625 22.648438 -7.5 25.109375 -7.5 Z M 25.109375 -7.5 "/></g></g></g><g fill="#2181f2" fill-opacity="1"><g transform="translate(77.898572, 105.609984)"><g><path d="M 67.90625 -41.65625 L 54.28125 0 L 43.921875 0 L 34.75 -28.203125 L 25.296875 0 L 15 0 L 1.3125 -41.65625 L 11.3125 -41.65625 L 20.71875 -12.375 L 30.53125 -41.65625 L 39.453125 -41.65625 L 48.984375 -12.140625 L 58.6875 -41.65625 Z M 67.90625 -41.65625 "/></g></g></g><g fill="#2181f2" fill-opacity="1"><g transform="translate(142.817932, 105.609984)"><g><path d="M 4.9375 -41.65625 L 23.859375 -41.65625 C 28.390625 -41.65625 32.390625 -40.789062 35.859375 -39.0625 C 39.328125 -37.34375 42.023438 -34.914062 43.953125 -31.78125 C 45.878906 -28.644531 46.84375 -24.992188 46.84375 -20.828125 C 46.84375 -16.660156 45.878906 -13.007812 43.953125 -9.875 C 42.023438 -6.738281 39.328125 -4.304688 35.859375 -2.578125 C 32.390625 -0.859375 28.390625 0 23.859375 0 L 4.9375 0 Z M 23.390625 -7.921875 C 27.554688 -7.921875 30.878906 -9.078125 33.359375 -11.390625 C 35.835938 -13.710938 37.078125 -16.859375 37.078125 -20.828125 C 37.078125 -24.796875 35.835938 -27.941406 33.359375 -30.265625 C 30.878906 -32.585938 27.554688 -33.75 23.390625 -33.75 L 14.578125 -33.75 L 14.578125 -7.921875 Z M 23.390625 -7.921875 "/></g></g></g><g fill="#2181f2" fill-opacity="1"><g transform="translate(187.684104, 105.609984)"><g><path d="M 25.109375 0.71875 C 20.785156 0.71875 16.890625 -0.210938 13.421875 -2.078125 C 9.953125 -3.941406 7.234375 -6.507812 5.265625 -9.78125 C 3.304688 -13.0625 2.328125 -16.742188 2.328125 -20.828125 C 2.328125 -24.910156 3.304688 -28.585938 5.265625 -31.859375 C 7.234375 -35.140625 9.953125 -37.710938 13.421875 -39.578125 C 16.890625 -41.441406 20.785156 -42.375 25.109375 -42.375 C 29.441406 -42.375 33.332031 -41.441406 36.78125 -39.578125 C 40.226562 -37.710938 42.941406 -35.140625 44.921875 -31.859375 C 46.910156 -28.585938 47.90625 -24.910156 47.90625 -20.828125 C 47.90625 -16.742188 46.910156 -13.0625 44.921875 -9.78125 C 42.941406 -6.507812 40.226562 -3.941406 36.78125 -2.078125 C 33.332031 -0.210938 29.441406 0.71875 25.109375 0.71875 Z M 25.109375 -7.5 C 27.578125 -7.5 29.800781 -8.0625 31.78125 -9.1875 C 33.757812 -10.320312 35.316406 -11.898438 36.453125 -13.921875 C 37.585938 -15.953125 38.15625 -18.253906 38.15625 -20.828125 C 38.15625 -23.410156 37.585938 -25.710938 36.453125 -27.734375 C 35.316406 -29.753906 33.757812 -31.328125 31.78125 -32.453125 C 29.800781 -33.585938 27.578125 -34.15625 25.109375 -34.15625 C 22.648438 -34.15625 20.425781 -33.585938 18.4375 -32.453125 C 16.457031 -31.328125 14.898438 -29.753906 13.765625 -27.734375 C 12.640625 -25.710938 12.078125 -23.410156 12.078125 -20.828125 C 12.078125 -18.253906 12.640625 -15.953125 13.765625 -13.921875 C 14.898438 -11.898438 16.457031 -10.320312 18.4375 -9.1875 C 20.425781 -8.0625 22.648438 -7.5 25.109375 -7.5 Z M 25.109375 -7.5 "/></g></g></g><g fill="#2181f2" fill-opacity="1"><g transform="translate(233.621395, 105.609984)"><g><path d="M 67.90625 -41.65625 L 54.28125 0 L 43.921875 0 L 34.75 -28.203125 L 25.296875 0 L 15 0 L 1.3125 -41.65625 L 11.3125 -41.65625 L 20.71875 -12.375 L 30.53125 -41.65625 L 39.453125 -41.65625 L 48.984375 -12.140625 L 58.6875 -41.65625 Z M 67.90625 -41.65625 "/></g></g></g><g fill="#2181f2" fill-opacity="1"><g transform="translate(298.540745, 105.609984)"><g><path d="M 43.15625 -41.65625 L 43.15625 0 L 35.234375 0 L 14.46875 -25.296875 L 14.46875 0 L 4.9375 0 L 4.9375 -41.65625 L 12.921875 -41.65625 L 33.625 -16.359375 L 33.625 -41.65625 Z M 43.15625 -41.65625 "/></g></g></g></g></g></svg>
